<?xml version="1.0" encoding="UTF-8"?>
<svg width="100pt" height="100pt" version="1.1" viewBox="0 0 100 100" xmlns="http://www.w3.org/2000/svg">
 <g>
  <path d="m86 17c-5.1992 0-9.3984 4-9.8984 9h-10.602c0.30078-0.60156 0.5-1.3008 0.5-2 0-1.3008-0.5-2.6016-1.3984-3.5-1-1-2.2031-1.5-3.6016-1.5-1.3008 0-2.6016 0.60156-3.5 1.6016l-4.6992 5.3984h-37.801v-8c0-0.60156-0.39844-1-1-1-5.5 0-10 4.5-10 10v46c0 5.5 4.5 10 10 10h72c5.5 0 10-4.5 10-10v-46c0-5.5-4.5-10-10-10zm2 52c-0.80078-0.60156-1.8984-1-3-1s-2.1992 0.39844-3 1v-2.8984c1.1992-0.69922 2.5-1.1016 4-1.1016 0.69922 0 1.3984 0.10156 2 0.30078zm-8 4c0 0.60156 0.39844 1 1 1s1-0.39844 1-1c0-1.6992 1.3008-3 3-3s3 1.3008 3 3c0 2.8008-2.1992 5-5 5s-5-2.1992-5-5c0-2 0.80078-3.8984 2-5.3008zm-20.898-51.102c0.5-0.60156 1.1992-0.89844 2-0.89844 0.80078 0 1.5 0.30078 2.1016 0.80078 0.60156 0.60156 0.80078 1.3008 0.80078 2.1016 0 0.80078-0.39844 1.5-0.89844 2l-22.105 19.699c-0.19922-0.30078-0.39844-0.60156-0.69922-0.80078-0.30078-0.30078-0.5-0.5-0.80078-0.69922zm-20.203 24.203c1.1992 1.1992 1.1992 3.1016 0 4.3008-1.3008 1.3008-4.6016 2-6.6992 2.3984 0.39844-2.1016 1.1016-5.3984 2.3984-6.6992 0.60156-0.60156 1.3984-0.89844 2.1992-0.89844 0.70312-0.003906 1.5039 0.29688 2.1016 0.89844zm-32.898-19.102c0-4.1016 3.1016-7.3984 7-7.8984v44c-2.8984 0.30078-5.3984 1.8008-7 4zm80 54h-72c-4.3984 0-8-3.6016-8-8s3.6016-8 8-8c0.60156 0 1-0.39844 1-1v-36h36l-13.602 15.301c-1.5-0.19922-3.1016 0.19922-4.3008 1.3984-2.3008 2.3008-3.1016 8.5-3.1016 9.1992 0 0.30078 0.10156 0.60156 0.30078 0.80078s0.39844 0.30078 0.69922 0.30078h0.10156c0.69922-0.10156 6.8008-0.80078 9.1992-3.1016 1.1992-1.1992 1.6016-2.8008 1.3984-4.3008l22.105-19.598h0.19922 12v45c0 3.8984 3.1016 7 7 7s7-3.1016 7-7v-6.8984c2.3984 1.3984 4 4 4 6.8984 0 4.3984-3.6016 8-8 8zm0-18c-3.3008 0-6.1992 1.6016-8 4v-40c0-4.3984 3.6016-8 8-8s8 3.6016 8 8v40c-1.8008-2.3984-4.6992-4-8-4z"/>
  <path d="m43.398 56.102c-7.6992 6.3008-14.398 0.30078-14.699 0-0.39844-0.39844-1-0.39844-1.3984 0.10156-0.39844 0.39844-0.39844 1 0.10156 1.3984 0.10156 0.10156 3.6992 3.3008 8.8008 3.3008 2.6016 0 5.5-0.80078 8.5-3.3008 7.3008-5.8984 14.398-0.19922 14.699 0 0.39844 0.30078 1.1016 0.30078 1.3984-0.10156 0.30078-0.39844 0.30078-1.1016-0.10156-1.3984-0.19922 0-8.8008-6.9023-17.301 0z"/>
 </g>
</svg>
